<?xml version="1.0" standalone="no"?>
<!DOCTYPE svg PUBLIC "-//W3C//DTD SVG 20010904//EN"
 "http://www.w3.org/TR/2001/REC-SVG-20010904/DTD/svg10.dtd">
<svg version="1.0" xmlns="http://www.w3.org/2000/svg"
 width="860.000000pt" height="882.000000pt"  style="fill:red"  viewBox="0 0 860.000000 882.000000"
 preserveAspectRatio="xMidYMid meet">

<g transform="translate(0.000000,882.000000) scale(0.100000,-0.100000)"
fill="#000000" stroke="none">
<path d="M3990 8383 c-448 -44 -787 -123 -1159 -270 -559 -221 -1086 -588
-1485 -1034 -497 -556 -814 -1188 -955 -1904 -36 -182 -56 -351 -72 -590 -11
-174 -10 -223 12 -500 62 -795 372 -1563 887 -2195 106 -130 344 -373 477
-489 594 -514 1313 -836 2105 -941 199 -27 598 -37 800 -21 951 75 1805 461
2484 1121 462 449 802 990 1007 1600 184 549 243 1164 169 1753 -160 1272
-925 2384 -2065 3005 -455 248 -966 404 -1495 457 -138 14 -600 19 -710 8z
m1852 -1096 c193 -70 333 -221 383 -412 19 -76 19 -210 -1 -288 -64 -246 -288
-431 -533 -438 -55 -2 -59 0 -185 85 -71 48 -181 113 -244 144 -111 55 -116
59 -138 107 -104 226 -57 486 120 660 80 80 161 126 268 155 99 27 235 22 330
-13z m-1267 -588 c104 -11 329 -55 356 -69 16 -9 48 -114 38 -125 -3 -2 -34 5
-69 16 -200 62 -462 94 -704 86 -270 -9 -507 -59 -750 -158 -66 -28 -128 -52
-136 -55 -11 -4 -21 7 -33 31 -9 20 -17 38 -17 41 0 12 180 88 303 129 330
108 660 142 1012 104z m-1518 -405 c15 -31 16 -37 3 -44 -9 -5 -60 -42 -116
-83 -352 -263 -630 -646 -769 -1058 -25 -74 -45 -142 -45 -151 0 -27 -23 -22
-55 12 l-28 29 43 131 c121 374 374 752 677 1012 102 88 240 188 259 188 8 0
22 -16 31 -36z m2979 -342 c279 -312 464 -670 548 -1062 21 -98 46 -274 46
-325 0 -12 -14 -15 -70 -15 -79 0 -74 -7 -85 110 -10 111 -52 300 -96 430
-101 306 -278 598 -514 848 -43 45 -76 85 -73 87 14 15 125 41 140 33 10 -5
57 -52 104 -106z m-678 -47 c75 -18 157 -59 234 -117 141 -108 217 -274 205
-448 -18 -249 -148 -427 -362 -495 -184 -58 -298 -51 -480 31 -6 2 -11 -28
-12 -79 -9 -331 -253 -756 -683 -1188 -250 -251 -994 -883 -1200 -1020 -22
-14 -23 -18 -11 -33 11 -13 11 -22 3 -41 -14 -29 -24 -31 -61 -9 -27 16 -29
15 -97 -28 -38 -24 -107 -66 -154 -92 -47 -27 -86 -49 -87 -50 -1 -1 25 -115
57 -254 33 -138 57 -259 54 -267 -3 -8 -15 -17 -26 -21 -21 -6 -16 -12 -420
386 -94 91 -148 152 -148 165 0 13 82 104 221 248 l222 228 -32 37 c-263 309
-395 537 -502 867 -16 49 -29 96 -29 104 0 17 39 61 54 61 6 0 22 -39 35 -88
52 -191 161 -432 275 -607 53 -82 198 -266 234 -298 19 -18 26 -11 375 350
196 202 355 368 354 369 -1 1 -141 -28 -310 -64 -314 -68 -337 -70 -345 -31
-1 8 95 129 214 269 118 140 273 322 342 405 155 183 410 440 555 560 338 280
520 365 788 369 l107 1 -14 27 c-8 15 -21 55 -29 90 -93 393 276 757 673 663z
m-3560 -931 c42 -14 107 -45 144 -70 77 -52 151 -130 144 -153 -3 -9 -10 -63
-17 -121 -11 -102 -7 -464 7 -537 5 -27 0 -38 -35 -76 -101 -109 -262 -179
-416 -179 -494 -3 -768 550 -467 944 42 55 125 124 192 158 127 66 312 80 448
34z m4828 -766 c-34 -411 -191 -822 -445 -1162 -87 -117 -237 -283 -262 -291
-20 -7 -119 21 -119 34 0 4 25 31 56 61 31 30 92 100 137 155 286 353 448 754
492 1218 l7 67 70 0 71 0 -7 -82z m-864 -1553 c253 -53 445 -274 464 -532 21
-281 -179 -549 -456 -614 -390 -90 -769 255 -711 647 6 41 21 101 34 132 l22
57 135 70 c151 78 255 141 345 209 67 51 72 52 167 31z m-2380 -281 c163 -71
339 -123 538 -161 75 -14 148 -17 355 -17 279 -1 362 9 580 68 50 13 91 23 93
21 9 -9 -13 -87 -28 -95 -27 -14 -253 -58 -362 -69 -54 -6 -167 -11 -253 -11
-261 0 -488 35 -724 112 -120 39 -297 111 -314 127 -9 9 12 61 24 61 4 0 45
-16 91 -36z"/>
<path d="M5365 5504 c-115 -106 -211 -198 -213 -203 -3 -9 310 -353 326 -358
4 -2 29 14 57 35 118 90 185 235 185 404 0 96 -54 231 -117 290 l-28 26 -210
-194z m252 -84 c37 -109 -14 -269 -72 -226 -18 13 -18 15 3 98 6 23 6 56 0 88
-12 66 -6 82 29 78 22 -2 31 -11 40 -38z"/>
<path d="M4206 4338 l-627 -633 86 -82 c47 -46 90 -83 94 -83 17 0 964 965
1017 1035 89 119 99 145 99 257 0 86 -3 100 -21 118 l-21 21 -627 -633z"/>
<path d="M3032 3780 c-83 -98 -152 -181 -152 -183 0 -3 509 104 538 114 7 2
-43 59 -110 126 l-123 123 -153 -180z"/>
<path d="M3420 3540 c-56 -61 -99 -110 -96 -110 4 0 81 14 173 30 91 17 170
30 174 30 21 0 4 22 -70 88 l-79 72 -102 -110z"/>
</g>
</svg>



